<?xml version="1.0" encoding="utf-8"?>
<!-- Generator: Adobe Illustrator 17.1.0, SVG Export Plug-In . SVG Version: 6.00 Build 0)  -->
<!DOCTYPE svg PUBLIC "-//W3C//DTD SVG 1.1//EN" "http://www.w3.org/Graphics/SVG/1.1/DTD/svg11.dtd">
<svg version="1.1" id="Layer_1" xmlns="http://www.w3.org/2000/svg" xmlns:xlink="http://www.w3.org/1999/xlink" x="0px" y="0px"
	 viewBox="0 0 75 75" enable-background="new 0 0 75 75" xml:space="preserve">
<g>
	<g>
		<path fill="#FFD835" d="M59.6,75H15.4C6.9,75,0,68.1,0,59.6V15.4C0,6.9,6.9,0,15.4,0h44.1C68.1,0,75,6.9,75,15.4v44.1
			C75,68.1,68.1,75,59.6,75z M15.4,4.4c-6.1,0-11,4.9-11,11v44.1c0,6.1,4.9,11,11,11h44.1c6.1,0,11-4.9,11-11V15.4
			c0-6.1-4.9-11-11-11H15.4z"/>
	</g>
	<g id="_x33_">
		<g>
			<g>
				<path fill="#FFD835" d="M36.2,54.2c-0.9,0-1.8-0.6-2.1-1.5l-8.5-24.5c-0.4-1.2,0.2-2.4,1.4-2.8c1.2-0.4,2.4,0.2,2.8,1.4
					l8.5,24.5c0.4,1.2-0.2,2.4-1.4,2.8C36.7,54.1,36.4,54.2,36.2,54.2z"/>
			</g>
			<g>
				<path fill="#FFD835" d="M47.3,50.4c-0.9,0-1.8-0.6-2.1-1.5l-8.5-24.5c-0.4-1.2,0.2-2.4,1.4-2.8c1.2-0.4,2.4,0.2,2.8,1.4
					l8.5,24.5c0.4,1.2-0.2,2.4-1.4,2.8C47.8,50.4,47.5,50.4,47.3,50.4z"/>
			</g>
		</g>
		<g>
			<g>
				<path fill="#FFD835" d="M27.1,49.9c-0.9,0-1.8-0.6-2.1-1.5c-0.4-1.2,0.2-2.4,1.4-2.8l24.5-8.5c1.2-0.4,2.4,0.2,2.8,1.4
					c0.4,1.2-0.2,2.4-1.4,2.8l-24.5,8.5C27.6,49.8,27.4,49.9,27.1,49.9z"/>
			</g>
			<g>
				<path fill="#FFD835" d="M23.4,38.7c-0.9,0-1.8-0.6-2.1-1.5c-0.4-1.2,0.2-2.4,1.4-2.8L47.2,26c1.2-0.4,2.4,0.2,2.8,1.4
					c0.4,1.2-0.2,2.4-1.4,2.8l-24.5,8.5C23.9,38.7,23.6,38.7,23.4,38.7z"/>
			</g>
		</g>
	</g>
</g>
</svg>
