<?xml version="1.0" encoding="utf-8"?>
<!-- Generator: Adobe Illustrator 17.1.0, SVG Export Plug-In . SVG Version: 6.00 Build 0)  -->
<!DOCTYPE svg PUBLIC "-//W3C//DTD SVG 1.1//EN" "http://www.w3.org/Graphics/SVG/1.1/DTD/svg11.dtd">
<svg version="1.1" id="Layer_1" xmlns="http://www.w3.org/2000/svg" xmlns:xlink="http://www.w3.org/1999/xlink" x="0px" y="0px"
	 viewBox="0 0 23 23" enable-background="new 0 0 23 23" xml:space="preserve">
<g>
	<path fill="#DADADA" d="M19.4,23C19.4,23,19.4,23,19.4,23c-0.3,0-0.6,0-0.9-0.1l-6.9-1.6c-0.1,0-0.2,0-0.3,0l-6.9,1.6
		C4.1,23,3.9,23,3.6,23c-1.2,0-2.4-0.6-3-1.7c-0.7-1.1-0.7-2.4-0.2-3.5L8.3,2c0.6-1.2,1.8-2,3.2-2c1.4,0,2.6,0.8,3.2,2l7.9,15.8
		c0.6,1.1,0.5,2.4-0.2,3.5C21.8,22.4,20.7,23,19.4,23z M11.5,18.4c0.3,0,0.6,0,0.8,0.1l6.9,1.6c0.1,0,0.1,0,0.2,0h0
		c0.2,0,0.5-0.1,0.6-0.3c0.1-0.2,0.2-0.4,0-0.7L12.1,3.3c-0.2-0.4-0.5-0.4-0.6-0.4s-0.5,0-0.6,0.4L3,19.1c-0.1,0.3-0.1,0.5,0,0.7
		c0.1,0.2,0.4,0.3,0.6,0.3c0.1,0,0.1,0,0.2,0l6.9-1.6C10.9,18.4,11.2,18.4,11.5,18.4z"/>
</g>
</svg>
