<?xml version="1.0" encoding="utf-8"?>
<!-- Generator: Adobe Illustrator 17.1.0, SVG Export Plug-In . SVG Version: 6.00 Build 0)  -->
<!DOCTYPE svg PUBLIC "-//W3C//DTD SVG 1.1//EN" "http://www.w3.org/Graphics/SVG/1.1/DTD/svg11.dtd">
<svg version="1.1" id="Layer_1" xmlns="http://www.w3.org/2000/svg" xmlns:xlink="http://www.w3.org/1999/xlink" x="0px" y="0px"
	 viewBox="0 0 75 75" enable-background="new 0 0 75 75" xml:space="preserve">
<g>
	<g>
		<path fill="#FFD835" d="M59.6,75H15.4C6.9,75,0,68.1,0,59.6V15.4C0,6.9,6.9,0,15.4,0h44.1C68.1,0,75,6.9,75,15.4v44.1
			C75,68.1,68.1,75,59.6,75z M15.4,4.4c-6.1,0-11,4.9-11,11v44.1c0,6.1,4.9,11,11,11h44.1c6.1,0,11-4.9,11-11V15.4
			c0-6.1-4.9-11-11-11H15.4z"/>
	</g>
	<path id="_x31_" fill="#FFD835" d="M37.5,25.4c3.2,0,6.3,1.3,8.6,3.6s3.6,5.3,3.6,8.6s-1.3,6.3-3.6,8.6s-5.3,3.6-8.6,3.6
		s-6.3-1.3-8.6-3.6s-3.6-5.3-3.6-8.6s1.3-6.3,3.6-8.6S34.3,25.4,37.5,25.4 M37.5,21C28.4,21,21,28.4,21,37.5S28.4,54,37.5,54
		S54,46.6,54,37.5S46.6,21,37.5,21L37.5,21z"/>
</g>
</svg>
