<?xml version="1.0" encoding="utf-8"?>
<!-- Generator: Adobe Illustrator 17.1.0, SVG Export Plug-In . SVG Version: 6.00 Build 0)  -->
<!DOCTYPE svg PUBLIC "-//W3C//DTD SVG 1.1//EN" "http://www.w3.org/Graphics/SVG/1.1/DTD/svg11.dtd">
<svg version="1.1" id="Layer_1" xmlns="http://www.w3.org/2000/svg" xmlns:xlink="http://www.w3.org/1999/xlink" x="0px" y="0px"
	 viewBox="0 0 75 75" enable-background="new 0 0 75 75" xml:space="preserve">
<g>
	<g>
		<path fill="#FFD835" d="M59.6,75H15.4C6.9,75,0,68.1,0,59.6V15.4C0,6.9,6.9,0,15.4,0h44.1C68.1,0,75,6.9,75,15.4v44.1
			C75,68.1,68.1,75,59.6,75z M15.4,4.4c-6.1,0-11,4.9-11,11v44.1c0,6.1,4.9,11,11,11h44.1c6.1,0,11-4.9,11-11V15.4
			c0-6.1-4.9-11-11-11H15.4z"/>
	</g>
	<g id="_x32__1_">
		<g id="c1_ray">
			<path fill="#FFD835" d="M44.6,20.7c0.5,0,1,0.5,0.8,1.1l-4.1,11.7c-0.2,0.6,0.2,1.1,0.8,1.1h4.7c0.8,0,1.1,0.9,0.6,1.5L29.5,53.6
				c-0.2,0.2-0.4,0.2-0.6,0.2c-0.5,0-1-0.5-0.8-1.2l4.4-11.6c0.2-0.6-0.2-1.2-0.8-1.2H27c-0.8,0-1.1-0.9-0.6-1.5L44,21
				C44.1,20.8,44.4,20.7,44.6,20.7 M44.6,16.3c-1.4,0-2.7,0.5-3.7,1.5L23.3,35.3c-1.5,1.5-2,3.8-1.2,5.7c0.8,1.8,2.5,3.1,4.5,3.2
				L24,51.1c-0.6,1.6-0.4,3.4,0.6,4.8c1,1.4,2.6,2.3,4.4,2.3c1.4,0,2.7-0.5,3.7-1.5l17.9-17.4c1.5-1.5,2-3.8,1.2-5.8
				c-0.8-1.9-2.6-3.2-4.6-3.3l2.4-7c0.6-1.6,0.3-3.4-0.7-4.8C47.9,17.2,46.3,16.3,44.6,16.3L44.6,16.3z"/>
		</g>
		<g id="Capa_1_29_">
		</g>
	</g>
</g>
</svg>
