<?xml version="1.0" encoding="utf-8"?>
<!-- Generator: Adobe Illustrator 17.1.0, SVG Export Plug-In . SVG Version: 6.00 Build 0)  -->
<!DOCTYPE svg PUBLIC "-//W3C//DTD SVG 1.1//EN" "http://www.w3.org/Graphics/SVG/1.1/DTD/svg11.dtd">
<svg version="1.1" id="Layer_1" xmlns="http://www.w3.org/2000/svg" xmlns:xlink="http://www.w3.org/1999/xlink" x="0px" y="0px"
	 viewBox="0 0 17 17" enable-background="new 0 0 17 17" xml:space="preserve">
<g>
	<g>
		<path fill="#FFFFFF" d="M13.5,17h-10C1.6,17,0,15.4,0,13.5v-10C0,1.6,1.6,0,3.5,0h10C15.4,0,17,1.6,17,3.5v10
			C17,15.4,15.4,17,13.5,17z M3.5,1C2.1,1,1,2.1,1,3.5v10C1,14.9,2.1,16,3.5,16h10c1.4,0,2.5-1.1,2.5-2.5v-10C16,2.1,14.9,1,13.5,1
			C13.5,1,3.5,1,3.5,1z"/>
	</g>
	<g id="_x33_">
		<g>
			<g>
				<path fill="#FFFFFF" d="M8.2,12.3c-0.2,0-0.4-0.1-0.5-0.3L5.8,6.4c-0.1-0.3,0-0.5,0.3-0.6c0.3-0.1,0.5,0,0.6,0.3l1.9,5.6
					c0.1,0.3,0,0.5-0.3,0.6C8.3,12.3,8.3,12.3,8.2,12.3z"/>
			</g>
			<g>
				<path fill="#FFFFFF" d="M10.7,11.4c-0.2,0-0.4-0.1-0.5-0.3L8.3,5.5C8.2,5.3,8.4,5,8.6,4.9c0.3-0.1,0.5,0,0.6,0.3l1.9,5.6
					c0.1,0.3,0,0.5-0.3,0.6C10.8,11.4,10.8,11.4,10.7,11.4z"/>
			</g>
		</g>
		<g>
			<g>
				<path fill="#FFFFFF" d="M6.1,11.3c-0.2,0-0.4-0.1-0.5-0.3c-0.1-0.3,0-0.5,0.3-0.6l5.6-1.9c0.3-0.1,0.5,0,0.6,0.3
					c0.1,0.3,0,0.5-0.3,0.6l-5.6,1.9C6.3,11.3,6.2,11.3,6.1,11.3z"/>
			</g>
			<g>
				<path fill="#FFFFFF" d="M5.3,8.8c-0.2,0-0.4-0.1-0.5-0.3c-0.1-0.3,0-0.5,0.3-0.6l5.6-1.9c0.3-0.1,0.5,0,0.6,0.3
					c0.1,0.3,0,0.5-0.3,0.6L5.5,8.8C5.4,8.8,5.3,8.8,5.3,8.8z"/>
			</g>
		</g>
	</g>
</g>
</svg>
