<?xml version="1.0" encoding="utf-8"?>
<!-- Generator: Adobe Illustrator 17.1.0, SVG Export Plug-In . SVG Version: 6.00 Build 0)  -->
<!DOCTYPE svg PUBLIC "-//W3C//DTD SVG 1.1//EN" "http://www.w3.org/Graphics/SVG/1.1/DTD/svg11.dtd">
<svg version="1.1" id="Layer_1" xmlns="http://www.w3.org/2000/svg" xmlns:xlink="http://www.w3.org/1999/xlink" x="0px" y="0px"
	 viewBox="0 0 17 17" enable-background="new 0 0 17 17" xml:space="preserve">
<path fill="#DADADA" d="M11.8,8.5L16.3,4c0.9-0.9,0.9-2.4,0-3.3c-0.9-0.9-2.4-0.9-3.3,0L8.5,5.1L4,0.7c-0.9-0.9-2.4-0.9-3.3,0
	c-0.9,0.9-0.9,2.4,0,3.3l4.5,4.5l-4.5,4.5c-0.9,0.9-0.9,2.4,0,3.3s2.4,0.9,3.3,0l4.5-4.5l4.5,4.5c0.9,0.9,2.4,0.9,3.3,0
	s0.9-2.4,0-3.3L11.8,8.5z"/>
</svg>
