<?xml version="1.0" encoding="utf-8"?>
<!-- Generator: Adobe Illustrator 17.1.0, SVG Export Plug-In . SVG Version: 6.00 Build 0)  -->
<!DOCTYPE svg PUBLIC "-//W3C//DTD SVG 1.1//EN" "http://www.w3.org/Graphics/SVG/1.1/DTD/svg11.dtd">
<svg version="1.1" id="Layer_1" xmlns="http://www.w3.org/2000/svg" xmlns:xlink="http://www.w3.org/1999/xlink" x="0px" y="0px"
	 viewBox="0 0 100 100" enable-background="new 0 0 100 100" xml:space="preserve">
<g>
	<g>
		<path fill="#FFFFFF" d="M75.6,99.4H24.4c-13.1,0-23.7-10.6-23.7-23.7V24.4c0-13.1,10.6-23.7,23.7-23.7h51.3
			c13.1,0,23.7,10.6,23.7,23.7v51.3C99.4,88.7,88.7,99.4,75.6,99.4z"/>
		<path fill="#E8E8E8" d="M75.6,100H24.4C10.9,100,0,89.1,0,75.6V24.4C0,10.9,10.9,0,24.4,0h51.3C89.1,0,100,10.9,100,24.4v51.3
			C100,89.1,89.1,100,75.6,100z M24.4,1.3C11.6,1.3,1.3,11.6,1.3,24.4v51.3c0,12.7,10.4,23.1,23.1,23.1h51.3
			c12.7,0,23.1-10.4,23.1-23.1V24.4c0-12.7-10.4-23.1-23.1-23.1H24.4z"/>
	</g>
	<g>
		<path fill="#FFD93B" d="M67.2,75.7C67.2,75.7,67.2,75.7,67.2,75.7c-0.6,0-1.3-0.1-1.9-0.2l-15.4-3.7c-0.2-0.1-0.5-0.1-0.7,0
			l-15.4,3.7c-0.6,0.1-1.3,0.2-1.9,0.2c-2.8,0-5.3-1.4-6.8-3.8c-1.5-2.4-1.6-5.3-0.3-7.8l17.7-35.3c1.4-2.7,4.1-4.4,7.2-4.4
			c3.1,0,5.8,1.7,7.2,4.4l17.7,35.3c1.3,2.5,1.1,5.4-0.3,7.8C72.5,74.3,70,75.7,67.2,75.7z M49.5,65.3c0.6,0,1.3,0.1,1.9,0.2
			l15.4,3.7c0.1,0,0.3,0.1,0.4,0.1h0c0.5,0,1-0.3,1.3-0.8c0.2-0.3,0.4-0.9,0.1-1.5L51,31.6c-0.4-0.8-1.1-0.9-1.4-0.9s-1,0.1-1.4,0.9
			L30.4,66.9c-0.3,0.7-0.1,1.2,0.1,1.5c0.3,0.5,0.8,0.8,1.3,0.8c0.1,0,0.3,0,0.4-0.1l15.4-3.7C48.3,65.4,48.9,65.3,49.5,65.3z"/>
	</g>
</g>
</svg>
