<?xml version="1.0" encoding="utf-8"?>
<!-- Generator: Adobe Illustrator 17.1.0, SVG Export Plug-In . SVG Version: 6.00 Build 0)  -->
<!DOCTYPE svg PUBLIC "-//W3C//DTD SVG 1.1//EN" "http://www.w3.org/Graphics/SVG/1.1/DTD/svg11.dtd">
<svg version="1.1" id="Layer_1" xmlns="http://www.w3.org/2000/svg" xmlns:xlink="http://www.w3.org/1999/xlink" x="0px" y="0px"
	 viewBox="0 0 30 30" enable-background="new 0 0 30 30" xml:space="preserve">
<g>
	<path fill="#FFD93B" d="M25.3,30C25.3,30,25.3,30,25.3,30c-0.4,0-0.7,0-1.1-0.1l-9-2.2c-0.1,0-0.3,0-0.4,0l-9,2.2
		C5.4,30,5,30,4.7,30c-1.6,0-3.1-0.8-4-2.2c-0.9-1.4-0.9-3.1-0.2-4.6L10.8,2.6C11.6,1,13.2,0,15,0c1.8,0,3.4,1,4.2,2.6l10.3,20.6
		c0.7,1.5,0.7,3.2-0.2,4.6C28.4,29.2,27,30,25.3,30z M15,23.9c0.4,0,0.7,0,1.1,0.1l9,2.2c0.1,0,0.2,0,0.2,0h0c0.3,0,0.6-0.2,0.8-0.5
		c0.1-0.2,0.2-0.5,0-0.9L15.8,4.3c-0.2-0.5-0.7-0.5-0.8-0.5c-0.2,0-0.6,0.1-0.8,0.5L3.9,24.9c-0.2,0.4-0.1,0.7,0,0.9
		c0.2,0.3,0.5,0.5,0.8,0.5c0.1,0,0.2,0,0.2,0l9-2.2C14.3,24,14.6,23.9,15,23.9z"/>
</g>
</svg>
