<?xml version="1.0" encoding="utf-8"?>
<!-- Generator: Adobe Illustrator 17.1.0, SVG Export Plug-In . SVG Version: 6.00 Build 0)  -->
<!DOCTYPE svg PUBLIC "-//W3C//DTD SVG 1.1//EN" "http://www.w3.org/Graphics/SVG/1.1/DTD/svg11.dtd">
<svg version="1.1" id="Layer_1" xmlns="http://www.w3.org/2000/svg" xmlns:xlink="http://www.w3.org/1999/xlink" x="0px" y="0px"
	 viewBox="0 0 17 17" enable-background="new 0 0 17 17" xml:space="preserve">
<g>
	<g>
		<path fill="#FFFFFF" d="M13.5,17h-10C1.6,17,0,15.4,0,13.5v-10C0,1.6,1.6,0,3.5,0h10C15.4,0,17,1.6,17,3.5v10
			C17,15.4,15.4,17,13.5,17z M3.5,1C2.1,1,1,2.1,1,3.5v10C1,14.9,2.1,16,3.5,16h10c1.4,0,2.5-1.1,2.5-2.5v-10C16,2.1,14.9,1,13.5,1
			C13.5,1,3.5,1,3.5,1z"/>
	</g>
	<path id="_x31_" fill="#FFFFFF" d="M8.5,5.8c0.7,0,1.4,0.3,1.9,0.8c0.5,0.5,0.8,1.2,0.8,1.9c0,0.7-0.3,1.4-0.8,1.9
		c-0.5,0.5-1.2,0.8-1.9,0.8S7.1,11,6.6,10.5C6,10,5.7,9.3,5.7,8.5c0-0.7,0.3-1.4,0.8-1.9S7.8,5.8,8.5,5.8 M8.5,4.8
		c-2.1,0-3.7,1.7-3.7,3.7s1.7,3.7,3.7,3.7s3.7-1.7,3.7-3.7S10.6,4.8,8.5,4.8L8.5,4.8z"/>
</g>
</svg>
