<?xml version="1.0" encoding="utf-8"?>
<!-- Generator: Adobe Illustrator 17.1.0, SVG Export Plug-In . SVG Version: 6.00 Build 0)  -->
<!DOCTYPE svg PUBLIC "-//W3C//DTD SVG 1.1//EN" "http://www.w3.org/Graphics/SVG/1.1/DTD/svg11.dtd">
<svg version="1.1" id="Layer_1" xmlns="http://www.w3.org/2000/svg" xmlns:xlink="http://www.w3.org/1999/xlink" x="0px" y="0px"
	 viewBox="0 0 44 44" enable-background="new 0 0 44 44" xml:space="preserve">
<path fill="#DADADA" d="M43.8,23.6c-0.7-2.1-2.9-3.2-4.9-2.5l-3.9,1.3c0,0,0,0,0,0l0,0c-0.9-2.7-1.8-5.6-2.7-8.2
	c2.4-0.8,3.9-1.3,3.9-1.3c2.1-0.7,3.2-2.9,2.5-4.9c-0.7-2.1-2.9-3.2-4.9-2.5l-3.9,1.3c0,0,0,0,0,0l0,0c-0.8-2.4-1.3-3.9-1.3-3.9
	c-0.7-2.1-2.9-3.2-4.9-2.5c-2.1,0.7-3.2,2.9-2.5,4.9l1.3,3.9h0l0,0l-8.2,2.7v0l0,0c-0.8-2.4-1.3-4-1.3-4c-0.7-2.1-2.9-3.2-4.9-2.5
	C5.8,6,4.7,8.2,5.3,10.3l1.3,4l0,0l0,0l-4.1,1.3c-1.9,0.7-3,2.8-2.4,4.8C0.7,22.4,2.9,23.7,5,23c0,0,1.6-0.5,4.1-1.3l2.7,8.3l0,0
	l0,0l-4.1,1.3c-1.9,0.7-3,2.8-2.4,4.8c0.6,2.1,2.8,3.3,4.9,2.7c0,0,1.6-0.5,4.1-1.3l0,0l0,0l1.3,4.1c0.7,1.9,2.8,3,4.8,2.4
	c2.1-0.6,3.3-2.8,2.7-4.9c0,0-0.5-1.6-1.3-4.1c2.7-0.9,5.6-1.8,8.3-2.7l1.3,4.1c0.7,1.9,2.8,3,4.8,2.4c2.1-0.6,3.3-2.8,2.7-4.9
	c0,0-0.5-1.6-1.3-4.1c2.4-0.8,3.9-1.3,3.9-1.3C43.3,27.9,44.4,25.7,43.8,23.6z M19.2,27.5c-0.9-2.7-1.8-5.6-2.7-8.3
	c2.7-0.9,5.6-1.8,8.2-2.7l0,0c0,0,0,0,0,0l2.7,8.2L19.2,27.5z"/>
</svg>
