<?xml version="1.0" encoding="utf-8"?>
<!-- Generator: Adobe Illustrator 17.1.0, SVG Export Plug-In . SVG Version: 6.00 Build 0)  -->
<!DOCTYPE svg PUBLIC "-//W3C//DTD SVG 1.1//EN" "http://www.w3.org/Graphics/SVG/1.1/DTD/svg11.dtd">
<svg version="1.1" id="Layer_1" xmlns="http://www.w3.org/2000/svg" xmlns:xlink="http://www.w3.org/1999/xlink" x="0px" y="0px"
	 viewBox="0 0 17 17" enable-background="new 0 0 17 17" xml:space="preserve">
<g>
	<g>
		<path fill="#FFFFFF" d="M13.5,17h-10C1.6,17,0,15.4,0,13.5v-10C0,1.6,1.6,0,3.5,0h10C15.4,0,17,1.6,17,3.5v10
			C17,15.4,15.4,17,13.5,17z M3.5,1C2.1,1,1,2.1,1,3.5v10C1,14.9,2.1,16,3.5,16h10c1.4,0,2.5-1.1,2.5-2.5v-10C16,2.1,14.9,1,13.5,1
			C13.5,1,3.5,1,3.5,1z"/>
	</g>
	<g id="_x32__1_">
		<g id="c1_ray">
			<path fill="#FFFFFF" d="M10.1,4.7c0.1,0,0.2,0.1,0.2,0.2L9.4,7.6c0,0.1,0,0.2,0.2,0.2h1.1c0.2,0,0.2,0.2,0.1,0.3l-4.1,4
				c0,0-0.1,0-0.1,0c-0.1,0-0.2-0.1-0.2-0.3l1-2.6c0-0.1,0-0.3-0.2-0.3H6.1C5.9,9,5.9,8.8,6,8.7l4-3.9C10,4.7,10.1,4.7,10.1,4.7
				 M10.1,3.7C9.8,3.7,9.5,3.8,9.3,4l-4,4C4.9,8.3,4.8,8.9,5,9.3C5.2,9.7,5.6,10,6,10l-0.6,1.6c-0.1,0.4-0.1,0.8,0.1,1.1
				c0.2,0.3,0.6,0.5,1,0.5c0.3,0,0.6-0.1,0.8-0.3l4.1-3.9c0.3-0.3,0.5-0.9,0.3-1.3c-0.2-0.4-0.6-0.7-1-0.7l0.5-1.6
				c0.1-0.4,0.1-0.8-0.2-1.1C10.9,3.9,10.5,3.7,10.1,3.7L10.1,3.7z"/>
		</g>
		<g id="Capa_1_29_">
		</g>
	</g>
</g>
</svg>
