<?xml version="1.0" encoding="utf-8"?>
<!-- Generator: Adobe Illustrator 17.1.0, SVG Export Plug-In . SVG Version: 6.00 Build 0)  -->
<!DOCTYPE svg PUBLIC "-//W3C//DTD SVG 1.1//EN" "http://www.w3.org/Graphics/SVG/1.1/DTD/svg11.dtd">
<svg version="1.1" id="Layer_1" xmlns="http://www.w3.org/2000/svg" xmlns:xlink="http://www.w3.org/1999/xlink" x="0px" y="0px"
	 viewBox="0 0 44 44" enable-background="new 0 0 44 44" xml:space="preserve">
<g>
	<path id="path3009" fill="#DADADA" d="M22,0C9.9,0,0,9.9,0,22c0,4.8,1.6,9.3,4.2,12.9l-2.7,8.2l8.5-2.7C13.4,42.7,17.5,44,22,44
		c12.1,0,22-9.9,22-22C44,9.9,34.1,0,22,0L22,0L22,0z"/>
	<path id="path3011" fill="#FEFEFE" d="M15.9,11.2c-0.4-1-0.8-1.1-1.4-1.1c-0.2,0-0.5,0-0.7,0c-0.8,0-1.7,0.2-2.3,0.8
		c-0.6,0.7-2.3,2.2-2.3,5.4s2.3,6.2,2.6,6.6c0.3,0.4,4.5,7,11,9.7c5.1,2.1,6.6,1.9,7.7,1.7c1.7-0.4,3.8-1.6,4.3-3.1
		c0.5-1.5,0.5-2.8,0.4-3.1c-0.2-0.3-0.6-0.4-1.2-0.8c-0.6-0.3-3.8-1.9-4.4-2.1C29,25,28.4,25,28,25.7c-0.6,0.9-1.2,1.7-1.7,2.3
		c-0.4,0.4-1,0.5-1.6,0.2c-0.7-0.3-2.7-1-5.2-3.2c-1.9-1.7-3.2-3.8-3.6-4.4c-0.4-0.6,0-1,0.3-1.4c0.3-0.4,0.6-0.7,1-1.1
		c0.3-0.4,0.5-0.6,0.7-1c0.2-0.4,0.1-0.9-0.1-1.2C17.7,15.6,16.4,12.5,15.9,11.2z"/>
</g>
</svg>
